<svg xmlns="http://www.w3.org/2000/svg" version="1.1" xmlns:xlink="http://www.w3.org/1999/xlink" width="1000" height="1000"><style>
    #light-icon {
      display: inline;
    }
    #dark-icon {
      display: none;
    }

    @media (prefers-color-scheme: dark) {
      #light-icon {
        display: none;
      }
      #dark-icon {
        display: inline;
      }
    }
  </style><g id="light-icon"><svg xmlns="http://www.w3.org/2000/svg" version="1.1" xmlns:xlink="http://www.w3.org/1999/xlink" width="1000" height="1000"><g clip-path="url(#SvgjsClipPath1172)"><rect width="1000" height="1000" fill="#ffffff"></rect><g transform="matrix(1.4647722279185587,0,0,1.4647722279185587,-5.684341886080802e-14,-5.684341886080802e-14)"><svg xmlns="http://www.w3.org/2000/svg" version="1.1" xmlns:xlink="http://www.w3.org/1999/xlink" width="682.7" height="682.7"><svg id="svg2" xmlns="http://www.w3.org/2000/svg" xmlns:svg="http://www.w3.org/2000/svg" xmlns:rdf="http://www.w3.org/1999/02/22-rdf-syntax-ns#" xmlns:dc="http://purl.org/dc/elements/1.1/" xmlns:cc="http://creativecommons.org/ns#" version="1.1" viewBox="0 0 682.7 682.7">
  <defs>
    <style>
      .cls-1 {
        fill: none;
        stroke-width: 0px;
      }

      .cls-2 {
        fill: #141414;
        stroke: #98989b;
        stroke-miterlimit: 13.3;
        stroke-width: 4px;
      }
    </style>
  <clipPath id="SvgjsClipPath1172"><rect width="1000" height="1000" x="0" y="0" rx="500" ry="500"></rect></clipPath></defs>
  <g id="g10">
    <g id="g12">
      <path id="path14" class="cls-1" d="M154.9,147.1v25.3h105.7l-25.3-35.7-80.4,10.4Z"></path>
    </g>
    <g id="g16">
      <path id="path18" class="cls-2" d="M154.9,147.1v25.3h105.7l-25.3-35.7-80.4,10.4Z"></path>
    </g>
    <g id="g20">
      <path id="path22" class="cls-1" d="M81.2,450.7L216.7,172.4h43.9l-96.7,373.6-82.6-95.3Z"></path>
    </g>
    <g id="g24">
      <path id="path26" class="cls-2" d="M81.2,450.7L216.7,172.4h43.9l-96.7,373.6-82.6-95.3Z"></path>
    </g>
    <g id="g28">
      <path id="path30" class="cls-1" d="M601.4,347.3l-407.3,81.6-30.3,117.1h292.5l145.1-198.7Z"></path>
    </g>
    <g id="g32">
      <path id="path34" class="cls-2" d="M601.4,347.3l-407.3,81.6-30.3,117.1h292.5l145.1-198.7Z"></path>
    </g>
    <g id="g36">
      <path id="path38" class="cls-2" d="M361.1,377.8l-163.9,39.4-3,11.7,176.7-35.4-9.8-15.7Z"></path>
    </g>
    <g id="g44">
      <path id="path46" class="cls-1" d="M370.9,409.1l-178.7,27.4-28.4,109.6h166.7l40.3-136.9Z"></path>
    </g>
    <g id="g48">
      <path id="path50" class="cls-2" d="M370.9,409.1l-178.7,27.4-28.4,109.6h166.7l40.3-136.9Z"></path>
    </g>
    <g id="g52">
      <path id="path54" class="cls-1" d="M456.3,546l-85.4-136.9-40.3,136.9h125.8Z"></path>
    </g>
    <g id="g56">
      <path id="path58" class="cls-2" d="M456.3,546l-85.4-136.9-40.3,136.9h125.8Z"></path>
    </g>
    <g id="g60">
      <path id="path62" class="cls-1" d="M108.8,167.9l46.1-8.2v12.7h-35l-11.2-4.5Z"></path>
    </g>
    <g id="g64">
      <path id="path66" class="cls-2" d="M108.8,167.9l46.1-8.2v12.7h-35l-11.2-4.5Z"></path>
    </g>
  </g>
</svg></svg></g></g></svg></g><g id="dark-icon"><svg xmlns="http://www.w3.org/2000/svg" version="1.1" xmlns:xlink="http://www.w3.org/1999/xlink" width="1000" height="1000"><g><g transform="matrix(1.4647722279185587,0,0,1.4647722279185587,-5.684341886080802e-14,-5.684341886080802e-14)" style="filter: invert(100%)"><svg xmlns="http://www.w3.org/2000/svg" version="1.1" xmlns:xlink="http://www.w3.org/1999/xlink" width="682.7" height="682.7"><svg id="svg2" xmlns="http://www.w3.org/2000/svg" xmlns:svg="http://www.w3.org/2000/svg" xmlns:rdf="http://www.w3.org/1999/02/22-rdf-syntax-ns#" xmlns:dc="http://purl.org/dc/elements/1.1/" xmlns:cc="http://creativecommons.org/ns#" version="1.1" viewBox="0 0 682.7 682.7">
  <defs>
    <style>
      .cls-1 {
        fill: none;
        stroke-width: 0px;
      }

      .cls-2 {
        fill: #141414;
        stroke: #98989b;
        stroke-miterlimit: 13.3;
        stroke-width: 4px;
      }
    </style>
  </defs>
  <g id="g10">
    <g id="g12">
      <path id="path14" class="cls-1" d="M154.9,147.1v25.3h105.7l-25.3-35.7-80.4,10.4Z"></path>
    </g>
    <g id="g16">
      <path id="path18" class="cls-2" d="M154.9,147.1v25.3h105.7l-25.3-35.7-80.4,10.4Z"></path>
    </g>
    <g id="g20">
      <path id="path22" class="cls-1" d="M81.2,450.7L216.7,172.4h43.9l-96.7,373.6-82.6-95.3Z"></path>
    </g>
    <g id="g24">
      <path id="path26" class="cls-2" d="M81.2,450.7L216.7,172.4h43.9l-96.7,373.6-82.6-95.3Z"></path>
    </g>
    <g id="g28">
      <path id="path30" class="cls-1" d="M601.4,347.3l-407.3,81.6-30.3,117.1h292.5l145.1-198.7Z"></path>
    </g>
    <g id="g32">
      <path id="path34" class="cls-2" d="M601.4,347.3l-407.3,81.6-30.3,117.1h292.5l145.1-198.7Z"></path>
    </g>
    <g id="g36">
      <path id="path38" class="cls-2" d="M361.1,377.8l-163.9,39.4-3,11.7,176.7-35.4-9.8-15.7Z"></path>
    </g>
    <g id="g44">
      <path id="path46" class="cls-1" d="M370.9,409.1l-178.7,27.4-28.4,109.6h166.7l40.3-136.9Z"></path>
    </g>
    <g id="g48">
      <path id="path50" class="cls-2" d="M370.9,409.1l-178.7,27.4-28.4,109.6h166.7l40.3-136.9Z"></path>
    </g>
    <g id="g52">
      <path id="path54" class="cls-1" d="M456.3,546l-85.4-136.9-40.3,136.9h125.8Z"></path>
    </g>
    <g id="g56">
      <path id="path58" class="cls-2" d="M456.3,546l-85.4-136.9-40.3,136.9h125.8Z"></path>
    </g>
    <g id="g60">
      <path id="path62" class="cls-1" d="M108.8,167.9l46.1-8.2v12.7h-35l-11.2-4.5Z"></path>
    </g>
    <g id="g64">
      <path id="path66" class="cls-2" d="M108.8,167.9l46.1-8.2v12.7h-35l-11.2-4.5Z"></path>
    </g>
  </g>
</svg></svg></g></g></svg></g></svg>
